<svg xmlns="http://www.w3.org/2000/svg" viewBox="0 0 691.52 95.38"><defs><style>.cls-1,.cls-2{fill:#636363;}.cls-2{stroke:#6b6b6b;stroke-miterlimit:10;stroke-width:1.25px;}.cls-3{fill:#6b6b6b;}.cls-4{fill:#c1d52f;}</style></defs><g id="Layer_2" data-name="Layer 2"><g id="Layer_1-2" data-name="Layer 1"><path class="cls-1" d="M378.27,40.31V9.64h2.3V40.31Z" transform="translate(0 -1.5)"/><path class="cls-1" d="M401.06,32.64v-23h2.29V40.31h-2.29l-6.9-23v23h-2.3V9.64h2.3Z" transform="translate(0 -1.5)"/><path class="cls-1" d="M419.18,40.31a6.81,6.81,0,0,1-3.31-.75,2.29,2.29,0,0,1-1.29-1.92V35h2.3v2.67a1.1,1.1,0,0,0,.64,1,3.34,3.34,0,0,0,1.66.37,3.1,3.1,0,0,0,1.58-.37,1.09,1.09,0,0,0,.71-1V27c0-.36-.24-.66-.71-.91a2.82,2.82,0,0,0-1.58-.42,6.81,6.81,0,0,1-3.31-.75A2.29,2.29,0,0,1,414.58,23V12.31a2.26,2.26,0,0,1,1.29-1.88,6.61,6.61,0,0,1,3.31-.79,6.36,6.36,0,0,1,3.23.79,2.25,2.25,0,0,1,1.36,1.88V15h-2.3V12.31c0-.36-.24-.67-.71-.92a2.9,2.9,0,0,0-1.58-.41,3.13,3.13,0,0,0-1.66.41,1.1,1.1,0,0,0-.64.92V23a1.1,1.1,0,0,0,.64,1,3.32,3.32,0,0,0,1.66.38,6.27,6.27,0,0,1,3.23.79A2.22,2.22,0,0,1,423.77,27V37.64a2.25,2.25,0,0,1-1.36,1.92A6.57,6.57,0,0,1,419.18,40.31Z" transform="translate(0 -1.5)"/><path class="cls-1" d="M434.93,40.31V9.64h4.59a6.36,6.36,0,0,1,3.23.79,2.26,2.26,0,0,1,1.37,1.88V23a2.28,2.28,0,0,1-1.37,1.92,6.57,6.57,0,0,1-3.23.75h-2.3V40.31Zm4.59-16a3.08,3.08,0,0,0,1.58-.38,1.09,1.09,0,0,0,.72-1V12.31c0-.36-.24-.67-.72-.92a2.9,2.9,0,0,0-1.58-.41h-2.3V24.31Z" transform="translate(0 -1.5)"/><path class="cls-1" d="M455.27,40.31V9.64h2.3V40.31Z" transform="translate(0 -1.5)"/><path class="cls-1" d="M478.06,40.31h-2.3l-2.3-14.67h-2.29V40.31h-2.3V9.64h4.59a6.43,6.43,0,0,1,3.24.79,2.25,2.25,0,0,1,1.36,1.88V23a2.12,2.12,0,0,1-1.36,1.92,8.09,8.09,0,0,1-1,.42Zm-3-16.38a1.09,1.09,0,0,0,.72-1V12.31c0-.36-.24-.67-.72-.92a2.81,2.81,0,0,0-1.58-.41h-2.29V24.31h2.29a3.11,3.11,0,0,0,1.56-.38Z" transform="translate(0 -1.5)"/><path class="cls-1" d="M489.14,40.31V9.64h2.3V40.31Z" transform="translate(0 -1.5)"/><path class="cls-1" d="M511.93,32.64v-23h2.3V40.31h-2.3l-6.89-23v23h-2.3V9.64H505Z" transform="translate(0 -1.5)"/><path class="cls-1" d="M530.12,40.31a6.77,6.77,0,0,1-3.3-.75,2.29,2.29,0,0,1-1.29-1.92V12.31a2.26,2.26,0,0,1,1.29-1.88,6.57,6.57,0,0,1,3.3-.79,6.43,6.43,0,0,1,3.24.79,2.25,2.25,0,0,1,1.36,1.88V15h-2.3V12.31c0-.36-.24-.67-.72-.92a2.9,2.9,0,0,0-1.58-.41,3.09,3.09,0,0,0-1.65.41,1.09,1.09,0,0,0-.65.92V37.64a1.13,1.13,0,0,0,.65,1,3.27,3.27,0,0,0,1.65.37,3.1,3.1,0,0,0,1.58-.37,1.09,1.09,0,0,0,.72-1v-12h-2.3V24.31h4.6V37.64a2.27,2.27,0,0,1-1.36,1.92A6.6,6.6,0,0,1,530.12,40.31Z" transform="translate(0 -1.5)"/><path class="cls-2" d="M570.56,40.31h-2.3L566.54,31h-5.75l-1.72,9.34h-2.3l5.75-30.67h2.29Zm-9.48-10.67h5.17l-2.59-13.87Z" transform="translate(0 -1.5)"/><path class="cls-2" d="M586.35,40.31a6.77,6.77,0,0,1-3.3-.75,2.27,2.27,0,0,1-1.3-1.92V12.31a2.25,2.25,0,0,1,1.3-1.88,6.57,6.57,0,0,1,3.3-.79,6.36,6.36,0,0,1,3.23.79A2.24,2.24,0,0,1,591,12.31V15h-2.3V12.31c0-.36-.24-.67-.72-.92a2.9,2.9,0,0,0-1.58-.41,3.09,3.09,0,0,0-1.65.41,1.09,1.09,0,0,0-.65.92V37.64a1.13,1.13,0,0,0,.65,1,3.27,3.27,0,0,0,1.65.37,3.1,3.1,0,0,0,1.58-.37,1.09,1.09,0,0,0,.72-1V35H591v2.67a2.28,2.28,0,0,1-1.37,1.92A6.61,6.61,0,0,1,586.35,40.31Z" transform="translate(0 -1.5)"/><path class="cls-2" d="M603.15,40.31V11H599.7V9.64h9.19V11h-3.45V40.31Z" transform="translate(0 -1.5)"/><path class="cls-2" d="M619.8,40.31V9.64h2.29V40.31Z" transform="translate(0 -1.5)"/><path class="cls-2" d="M639.68,40.31a6.77,6.77,0,0,1-3.3-.75,2.27,2.27,0,0,1-1.3-1.92V12.31a2.25,2.25,0,0,1,1.3-1.88,6.57,6.57,0,0,1,3.3-.79,6.36,6.36,0,0,1,3.23.79,2.26,2.26,0,0,1,1.37,1.88V37.64a2.28,2.28,0,0,1-1.37,1.92A6.57,6.57,0,0,1,639.68,40.31Zm0-1.34a3.1,3.1,0,0,0,1.58-.37,1.09,1.09,0,0,0,.72-1V12.31c0-.36-.24-.67-.72-.92a2.9,2.9,0,0,0-1.58-.41,3.09,3.09,0,0,0-1.65.41,1.09,1.09,0,0,0-.65.92V37.64a1.13,1.13,0,0,0,.65,1A3.26,3.26,0,0,0,639.68,39Z" transform="translate(0 -1.5)"/><path class="cls-2" d="M666.46,32.64v-23h2.3V40.31h-2.3l-6.9-23v23h-2.3V9.64h2.3Z" transform="translate(0 -1.5)"/><path class="cls-2" d="M686.27,40.31a6.77,6.77,0,0,1-3.3-.75,2.3,2.3,0,0,1-1.3-1.92V35H684v2.67a1.13,1.13,0,0,0,.65,1,3.27,3.27,0,0,0,1.65.37,3.1,3.1,0,0,0,1.58-.37,1.09,1.09,0,0,0,.72-1V27c0-.36-.24-.66-.72-.91a2.82,2.82,0,0,0-1.58-.42,6.77,6.77,0,0,1-3.3-.75,2.3,2.3,0,0,1-1.3-1.92V12.31a2.28,2.28,0,0,1,1.3-1.88,6.57,6.57,0,0,1,3.3-.79,6.36,6.36,0,0,1,3.23.79,2.26,2.26,0,0,1,1.37,1.88V15h-2.3V12.31c0-.36-.24-.67-.72-.92a2.9,2.9,0,0,0-1.58-.41,3.09,3.09,0,0,0-1.65.41,1.09,1.09,0,0,0-.65.92V23a1.13,1.13,0,0,0,.65,1,3.28,3.28,0,0,0,1.65.38,6.27,6.27,0,0,1,3.23.79A2.23,2.23,0,0,1,690.89,27V37.64a2.28,2.28,0,0,1-1.37,1.92A6.67,6.67,0,0,1,686.27,40.31Z" transform="translate(0 -1.5)"/><path class="cls-1" d="M378.27,84.5V53.8h4.59a6.31,6.31,0,0,1,3.24.8,2.23,2.23,0,0,1,1.36,1.9V81.8a2.27,2.27,0,0,1-1.36,1.92,6.6,6.6,0,0,1-3.24.75Zm4.59-1.34a3.1,3.1,0,0,0,1.58-.37,1.09,1.09,0,0,0,.72-1V56.5c0-.36-.24-.67-.72-.92a2.81,2.81,0,0,0-1.58-.41h-2.29v28Z" transform="translate(0 -1.5)"/><path class="cls-1" d="M413.69,84.5h-2.3l-2.3-14.7h-2.3V84.5h-2.3V53.8h4.6a6.27,6.27,0,0,1,3.23.8,2.23,2.23,0,0,1,1.37,1.9V67.14a2.13,2.13,0,0,1-1.37,1.91,6.8,6.8,0,0,1-1,.42Zm-3-16.38a1.09,1.09,0,0,0,.72-1V56.5c0-.36-.24-.67-.72-.92a2.9,2.9,0,0,0-1.58-.41h-2.3V68.5h2.3a3.13,3.13,0,0,0,1.56-.41Z" transform="translate(0 -1.5)"/><path class="cls-1" d="M430.51,84.5V53.8h2.29V84.5Z" transform="translate(0 -1.5)"/><path class="cls-1" d="M460,53.8h2.29l-5.76,30.7h-2.3l-5.75-30.7h2.3l4.6,24.54Z" transform="translate(0 -1.5)"/><path class="cls-1" d="M477.86,84.5V53.8h2.3V84.5Z" transform="translate(0 -1.5)"/><path class="cls-1" d="M506.39,76.8v-23h2.29V84.5h-2.29l-6.9-23v23h-2.3V53.8h2.3Z" transform="translate(0 -1.5)"/><path class="cls-1" d="M530.32,84.5a6.81,6.81,0,0,1-3.31-.75,2.29,2.29,0,0,1-1.29-1.92V56.5A2.24,2.24,0,0,1,527,54.6a6.51,6.51,0,0,1,3.31-.8,6.27,6.27,0,0,1,3.23.8,2.21,2.21,0,0,1,1.38,1.9v2.67h-2.3V56.5c0-.36-.24-.67-.71-.92a3,3,0,0,0-1.58-.41,3.13,3.13,0,0,0-1.66.41,1.07,1.07,0,0,0-.67.92V81.8a1.1,1.1,0,0,0,.64,1,3.31,3.31,0,0,0,1.66.37,3.1,3.1,0,0,0,1.58-.37,1.09,1.09,0,0,0,.71-1v-12h-2.29V68.5h4.59V81.8a2.25,2.25,0,0,1-1.36,1.92A6.59,6.59,0,0,1,530.32,84.5Z" transform="translate(0 -1.5)"/><path class="cls-2" d="M561.91,84.5a6.77,6.77,0,0,1-3.3-.75,2.29,2.29,0,0,1-1.29-1.92v-2.7h2.3V81.8a1.1,1.1,0,0,0,.64,1,3.27,3.27,0,0,0,1.65.37,3.11,3.11,0,0,0,1.59-.37,1.09,1.09,0,0,0,.71-1V71.14c0-.37-.24-.67-.71-.92a2.85,2.85,0,0,0-1.59-.42,6.77,6.77,0,0,1-3.3-.75,2.28,2.28,0,0,1-1.29-1.91V56.5a2.24,2.24,0,0,1,1.29-1.87,6.45,6.45,0,0,1,3.3-.8,6.29,6.29,0,0,1,3.24.8,2.2,2.2,0,0,1,1.36,1.87v2.67h-2.3V56.5c0-.36-.24-.67-.71-.92a3,3,0,0,0-1.59-.41,3.09,3.09,0,0,0-1.65.41,1.1,1.1,0,0,0-.64.92V67.14a1.1,1.1,0,0,0,.64,1,3.28,3.28,0,0,0,1.65.38,6.3,6.3,0,0,1,3.24.79,2.22,2.22,0,0,1,1.36,1.88V81.8a2.25,2.25,0,0,1-1.36,1.92A6.63,6.63,0,0,1,561.91,84.5Z" transform="translate(0 -1.5)"/><path class="cls-2" d="M583.29,84.5a6.77,6.77,0,0,1-3.3-.75,2.27,2.27,0,0,1-1.3-1.92v-28H581v28a1.13,1.13,0,0,0,.65,1,3.27,3.27,0,0,0,1.65.37,3.1,3.1,0,0,0,1.58-.37,1.09,1.09,0,0,0,.72-1v-28h2.3v28a2.28,2.28,0,0,1-1.37,1.92A6.57,6.57,0,0,1,583.29,84.5Z" transform="translate(0 -1.5)"/><path class="cls-2" d="M604.81,84.5a6.77,6.77,0,0,1-3.3-.75,2.3,2.3,0,0,1-1.3-1.92V56.5a2.25,2.25,0,0,1,1.3-1.87,6.45,6.45,0,0,1,3.3-.8,6.27,6.27,0,0,1,3.23.8,2.23,2.23,0,0,1,1.37,1.87v2.67h-2.3V56.5c0-.36-.24-.67-.72-.92a2.9,2.9,0,0,0-1.58-.41,3.09,3.09,0,0,0-1.65.41,1.09,1.09,0,0,0-.65.92V81.8a1.13,1.13,0,0,0,.65,1,3.27,3.27,0,0,0,1.65.37,3.1,3.1,0,0,0,1.58-.37,1.09,1.09,0,0,0,.72-1V79.13h2.3V81.8A2.28,2.28,0,0,1,608,83.72,6.59,6.59,0,0,1,604.81,84.5Z" transform="translate(0 -1.5)"/><path class="cls-2" d="M626,84.5a6.77,6.77,0,0,1-3.3-.75,2.29,2.29,0,0,1-1.29-1.92V56.5a2.24,2.24,0,0,1,1.29-1.87,6.45,6.45,0,0,1,3.3-.8,6.31,6.31,0,0,1,3.24.8,2.2,2.2,0,0,1,1.36,1.87v2.67h-2.3V56.5c0-.36-.24-.67-.72-.92a2.81,2.81,0,0,0-1.58-.41,3.09,3.09,0,0,0-1.65.41,1.1,1.1,0,0,0-.64.92V81.8a1.1,1.1,0,0,0,.64,1,3.27,3.27,0,0,0,1.65.37,3.1,3.1,0,0,0,1.58-.37,1.09,1.09,0,0,0,.72-1V79.13h2.3V81.8a2.25,2.25,0,0,1-1.36,1.92A6.63,6.63,0,0,1,626,84.5Z" transform="translate(0 -1.5)"/><path class="cls-2" d="M642.68,84.5V53.8h9.19v1.34H645V68.5h2.3v1.3H645V83.13h6.89V84.5Z" transform="translate(0 -1.5)"/><path class="cls-2" d="M665.13,84.5a6.77,6.77,0,0,1-3.3-.75,2.29,2.29,0,0,1-1.29-1.92v-2.7h2.29V81.8a1.13,1.13,0,0,0,.65,1,3.27,3.27,0,0,0,1.65.37,3.1,3.1,0,0,0,1.58-.37,1.09,1.09,0,0,0,.72-1V71.14c0-.37-.24-.67-.72-.92a2.82,2.82,0,0,0-1.58-.42,6.77,6.77,0,0,1-3.3-.75,2.28,2.28,0,0,1-1.29-1.91V56.5a2.26,2.26,0,0,1,1.29-1.87,6.45,6.45,0,0,1,3.3-.8,6.31,6.31,0,0,1,3.24.8,2.22,2.22,0,0,1,1.36,1.87v2.67h-2.3V56.5c0-.36-.24-.67-.72-.92a2.9,2.9,0,0,0-1.58-.41,3.09,3.09,0,0,0-1.65.41,1.09,1.09,0,0,0-.65.92V67.14a1.13,1.13,0,0,0,.65,1,3.28,3.28,0,0,0,1.65.38,6.3,6.3,0,0,1,3.24.79,2.25,2.25,0,0,1,1.36,1.88V81.8a2.27,2.27,0,0,1-1.36,1.92A6.63,6.63,0,0,1,665.13,84.5Z" transform="translate(0 -1.5)"/><path class="cls-2" d="M686,84.5a6.81,6.81,0,0,1-3.31-.75,2.29,2.29,0,0,1-1.29-1.92v-2.7h2.3V81.8a1.1,1.1,0,0,0,.64,1,3.34,3.34,0,0,0,1.66.37,3.1,3.1,0,0,0,1.58-.37,1.09,1.09,0,0,0,.72-1V71.14c0-.37-.24-.67-.72-.92A2.82,2.82,0,0,0,686,69.8a6.81,6.81,0,0,1-3.31-.75,2.28,2.28,0,0,1-1.29-1.91V56.5a2.24,2.24,0,0,1,1.29-1.87,6.51,6.51,0,0,1,3.31-.8,6.27,6.27,0,0,1,3.23.8,2.21,2.21,0,0,1,1.38,1.87v2.67h-2.29V56.5c0-.36-.24-.67-.72-.92a2.9,2.9,0,0,0-1.58-.41,3.13,3.13,0,0,0-1.66.41,1.1,1.1,0,0,0-.64.92V67.14a1.1,1.1,0,0,0,.64,1,3.36,3.36,0,0,0,1.64.36,6.27,6.27,0,0,1,3.23.79,2.22,2.22,0,0,1,1.36,1.88V81.8a2.25,2.25,0,0,1-1.36,1.92A6.59,6.59,0,0,1,686,84.5Z" transform="translate(0 -1.5)"/><rect class="cls-3" x="352.75" y="0.89" width="1.31" height="90.29"/><path class="cls-4" d="M0,45.36Q0,34,7.67,26.62t20.71-7.37q14.91,0,22.53,8.66A25.1,25.1,0,0,1,57,45.08q0,11.47-7.59,18.8t-21,7.32q-12,0-19.35-6.09Q0,57.6,0,45.36Zm19.11,0q0,6.64,2.68,9.83a8.47,8.47,0,0,0,6.75,3.18,8.43,8.43,0,0,0,6.75-3.13Q37.92,52,37.92,45.12q0-6.46-2.66-9.62a8.29,8.29,0,0,0-6.58-3.16,8.61,8.61,0,0,0-6.87,3.21Q19.11,38.76,19.11,45.31Z" transform="translate(0 -1.5)"/><path class="cls-4" d="M59.6,89V20.39H77.45v7.32a23.56,23.56,0,0,1,6.78-6.27,19.43,19.43,0,0,1,9.2-2.19q10,0,15.4,7.63t5.45,18.86q0,12.4-5.94,18.93a19.42,19.42,0,0,1-15,6.53,20.71,20.71,0,0,1-8-1.5,19,19,0,0,1-6.48-4.45V89ZM78.71,45.34q0,5.89,2.48,8.77A7.92,7.92,0,0,0,87.44,57,6.9,6.9,0,0,0,93,54.22q2.23-2.74,2.24-9.3c0-4-.78-7-2.33-8.88a7.15,7.15,0,0,0-5.7-2.84,7.66,7.66,0,0,0-6.07,2.86Q78.71,38.92,78.71,45.34Z" transform="translate(0 -1.5)"/><path class="cls-4" d="M141,1.5V20.39h10.45v14H141V52a9.39,9.39,0,0,0,.61,4.2,3.47,3.47,0,0,0,3.27,1.59,20.84,20.84,0,0,0,5.88-1.22l1.4,13.13a61.87,61.87,0,0,1-13.19,1.54q-7.11,0-10.48-1.83a11,11,0,0,1-5-5.53q-1.62-3.71-1.62-12V34.34h-7v-14h7V11.27Z" transform="translate(0 -1.5)"/><path class="cls-4" d="M170.68,4.5v7h-13V4.5h13m0,18.89V67.05h-13V23.39h13m3-21.89h-19v13h19V1.5Zm0,18.89h-19V70.05h19V20.39Z" transform="translate(0 -1.5)"/><path class="cls-4" d="M176.92,20.39h17.8v7.22a24.87,24.87,0,0,1,7.76-6.45,21.36,21.36,0,0,1,9.44-1.91q6,0,9.43,2.1A15.68,15.68,0,0,1,227,27.61,28.69,28.69,0,0,1,235.2,21a21.19,21.19,0,0,1,9.12-1.75q8,0,12.48,4.74t4.49,14.86v31.2H242.18V41.72a8,8,0,0,0-1.3-5,5.74,5.74,0,0,0-4.76-2.58,6.71,6.71,0,0,0-5.41,2.44q-2.06,2.43-2.05,7.82V70.05h-19.1V42.67a17.23,17.23,0,0,0-.38-4.45,6,6,0,0,0-2.12-3,5.59,5.59,0,0,0-3.52-1.15,6.79,6.79,0,0,0-5.4,2.48c-1.41,1.65-2.11,4.37-2.11,8.14V70.05H176.92Z" transform="translate(0 -1.5)"/><path class="cls-4" d="M321.44,50H283.3c.34,3.06,1.17,5.35,2.48,6.85A9,9,0,0,0,293,60a10.62,10.62,0,0,0,5.32-1.41,12.53,12.53,0,0,0,3.32-3.16l18.75,1.72q-4.31,7.5-10.39,10.76T292.54,71.2q-9.87,0-15.53-2.79a22.78,22.78,0,0,1-9.38-8.84,26.69,26.69,0,0,1-3.72-14.25q0-11.66,7.46-18.87T292,19.25q10.66,0,16.83,3.23a21.81,21.81,0,0,1,9.41,9.36q3.22,6.12,3.22,16Zm-19.39-9.09q-.56-5.53-3-7.92a9.26,9.26,0,0,0-13.55,1.22,13.24,13.24,0,0,0-2.19,6.7Z" transform="translate(0 -1.5)"/><path class="cls-4" d="M329.83,17.31a6.09,6.09,0,1,1-6-5.92A6,6,0,0,1,329.83,17.31Zm-10.66,0a4.62,4.62,0,0,0,4.62,4.74,4.54,4.54,0,0,0,4.52-4.7,4.57,4.57,0,1,0-9.14,0Zm3.65,3.08h-1.38V14.46a16.38,16.38,0,0,1,2.28-.18,3.14,3.14,0,0,1,2,.47,1.5,1.5,0,0,1,.62,1.26,1.53,1.53,0,0,1-1.23,1.41v.08c.58.18.87.65,1.05,1.44a5.4,5.4,0,0,0,.43,1.45h-1.44a4.71,4.71,0,0,1-.48-1.45c-.1-.61-.47-.9-1.22-.9h-.65Zm0-3.33h.65c.76,0,1.38-.25,1.38-.87s-.4-.9-1.27-.9a3.8,3.8,0,0,0-.76.07Z" transform="translate(0 -1.5)"/><path class="cls-4" d="M110.66,86.55a5.86,5.86,0,0,1,1.77-4.69A5.26,5.26,0,0,1,116,80.59a5.12,5.12,0,0,1,3.84,1.54,5.86,5.86,0,0,1,1.5,4.26,7.52,7.52,0,0,1-.66,3.46,4.6,4.6,0,0,1-1.92,2,5.58,5.58,0,0,1-2.76.7A5.12,5.12,0,0,1,112.14,91,6.13,6.13,0,0,1,110.66,86.55Zm2,0a4.83,4.83,0,0,0,1,3.28,3.19,3.19,0,0,0,4.8,0,5,5,0,0,0,1-3.34,4.73,4.73,0,0,0-1-3.21A3.08,3.08,0,0,0,116,82.19a3,3,0,0,0-2.4,1.09A4.8,4.8,0,0,0,112.65,86.55Z" transform="translate(0 -1.5)"/><path class="cls-4" d="M123.61,96.62V80.85h1.76v1.48a4.3,4.3,0,0,1,1.41-1.3,3.76,3.76,0,0,1,1.9-.44,4.54,4.54,0,0,1,2.58.75,4.64,4.64,0,0,1,1.68,2.12,7.8,7.8,0,0,1,.57,3,7.64,7.64,0,0,1-.63,3.15,4.7,4.7,0,0,1-1.82,2.15,4.76,4.76,0,0,1-2.52.74,3.65,3.65,0,0,1-1.73-.41,3.78,3.78,0,0,1-1.26-1v5.55Zm1.75-10a5,5,0,0,0,.89,3.26,2.75,2.75,0,0,0,2.16,1,2.79,2.79,0,0,0,2.21-1.09,5.17,5.17,0,0,0,.92-3.38,5,5,0,0,0-.9-3.26,2.7,2.7,0,0,0-2.14-1.08,2.79,2.79,0,0,0-2.19,1.15A5.18,5.18,0,0,0,125.36,86.61Z" transform="translate(0 -1.5)"/><path class="cls-4" d="M140.06,90.52l.28,1.71a6.76,6.76,0,0,1-1.46.17,3.31,3.31,0,0,1-1.63-.33,1.83,1.83,0,0,1-.82-.88,6.88,6.88,0,0,1-.23-2.28V82.35h-1.42v-1.5h1.42V78l1.92-1.16v4h1.94v1.5h-1.94V89a3.28,3.28,0,0,0,.1,1.06.81.81,0,0,0,.33.38,1.35,1.35,0,0,0,.66.14A6.38,6.38,0,0,0,140.06,90.52Z" transform="translate(0 -1.5)"/><path class="cls-4" d="M142,78.74V76.51h1.93v2.23Zm0,13.51V80.85h1.93v11.4Z" transform="translate(0 -1.5)"/><path class="cls-4" d="M146.84,92.25V80.85h1.72v1.6A4.12,4.12,0,0,1,150,81.1a4,4,0,0,1,2-.51,3.75,3.75,0,0,1,2.08.53,2.8,2.8,0,0,1,1.14,1.47,4.1,4.1,0,0,1,3.52-2,3.49,3.49,0,0,1,2.61.94,4,4,0,0,1,.92,2.9v7.82h-1.93V85.07a5.52,5.52,0,0,0-.18-1.67,1.66,1.66,0,0,0-.69-.82,2.07,2.07,0,0,0-1.16-.31,2.7,2.7,0,0,0-2,.8,3.5,3.5,0,0,0-.8,2.56v6.62h-1.93V84.84a3.31,3.31,0,0,0-.47-1.93,1.79,1.79,0,0,0-1.55-.64,2.81,2.81,0,0,0-1.51.43,2.41,2.41,0,0,0-1,1.25,7,7,0,0,0-.31,2.39v5.91Z" transform="translate(0 -1.5)"/><path class="cls-4" d="M173,88.58l2,.25a4.8,4.8,0,0,1-1.75,2.71A5.92,5.92,0,0,1,166,91a6.06,6.06,0,0,1-1.46-4.32A6.3,6.3,0,0,1,166,82.18a5,5,0,0,1,3.84-1.59,4.88,4.88,0,0,1,3.74,1.56A6.18,6.18,0,0,1,175,86.53c0,.11,0,.29,0,.51H166.5a4.39,4.39,0,0,0,1.07,2.88,3.15,3.15,0,0,0,2.38,1,3,3,0,0,0,1.82-.56A3.72,3.72,0,0,0,173,88.58Zm-6.35-3.12H173a3.91,3.91,0,0,0-.73-2.16,3,3,0,0,0-2.39-1.12,3.08,3.08,0,0,0-2.24.89A3.55,3.55,0,0,0,166.61,85.46Z" transform="translate(0 -1.5)"/><path class="cls-4" d="M184.82,88.08l1.9.24a5,5,0,0,1-1.59,3.08A4.66,4.66,0,0,1,182,92.51,4.91,4.91,0,0,1,178.21,91a6.2,6.2,0,0,1-1.42-4.39,8.09,8.09,0,0,1,.61-3.23,4.24,4.24,0,0,1,1.86-2.07,5.49,5.49,0,0,1,2.73-.7,4.77,4.77,0,0,1,3,.94,4.35,4.35,0,0,1,1.51,2.67l-1.88.29a3.16,3.16,0,0,0-.95-1.73,2.45,2.45,0,0,0-1.65-.58,3,3,0,0,0-2.37,1,5,5,0,0,0-.91,3.31,5.14,5.14,0,0,0,.88,3.34,2.86,2.86,0,0,0,2.29,1,2.71,2.71,0,0,0,1.91-.7A3.45,3.45,0,0,0,184.82,88.08Z" transform="translate(0 -1.5)"/><path class="cls-4" d="M187.66,86.55a5.86,5.86,0,0,1,1.76-4.69A5.26,5.26,0,0,1,193,80.59a5.16,5.16,0,0,1,3.85,1.54,5.89,5.89,0,0,1,1.49,4.26,7.52,7.52,0,0,1-.66,3.46,4.56,4.56,0,0,1-1.93,2,5.52,5.52,0,0,1-2.75.7A5.12,5.12,0,0,1,189.13,91,6.13,6.13,0,0,1,187.66,86.55Zm2,0a4.83,4.83,0,0,0,1,3.28,3.19,3.19,0,0,0,4.8,0,5,5,0,0,0,.95-3.34,4.73,4.73,0,0,0-1-3.21,3.18,3.18,0,0,0-4.79,0A4.8,4.8,0,0,0,189.64,86.55Z" transform="translate(0 -1.5)"/><path class="cls-4" d="M200.6,92.25V80.85h1.74v1.62A4.11,4.11,0,0,1,206,80.59a4.74,4.74,0,0,1,1.9.37,3.06,3.06,0,0,1,1.29,1,3.68,3.68,0,0,1,.6,1.43,11.23,11.23,0,0,1,.11,1.88v7h-1.93V85.32a5.21,5.21,0,0,0-.23-1.77,1.85,1.85,0,0,0-.8-.93,2.55,2.55,0,0,0-1.34-.35,3.15,3.15,0,0,0-2.14.78,3.84,3.84,0,0,0-.89,3v6.23Z" transform="translate(0 -1.5)"/><path class="cls-4" d="M212.06,88.85l1.91-.3a2.7,2.7,0,0,0,.9,1.76,3.1,3.1,0,0,0,2,.61,3,3,0,0,0,2-.54,1.62,1.62,0,0,0,.64-1.27,1.17,1.17,0,0,0-.57-1,8,8,0,0,0-2-.66,18.39,18.39,0,0,1-2.95-.93,3,3,0,0,1-1.25-1.08,2.91,2.91,0,0,1-.42-1.53,3,3,0,0,1,.35-1.41,3,3,0,0,1,1-1.08,3.92,3.92,0,0,1,1.23-.57,6,6,0,0,1,1.67-.23,6.56,6.56,0,0,1,2.36.39,3.38,3.38,0,0,1,1.5,1,4.15,4.15,0,0,1,.66,1.77l-1.89.26a2.09,2.09,0,0,0-.74-1.37,2.76,2.76,0,0,0-1.75-.5,3.18,3.18,0,0,0-1.9.44,1.28,1.28,0,0,0-.57,1,1.07,1.07,0,0,0,.24.68,1.57,1.57,0,0,0,.74.51c.19.08.76.24,1.7.5a24.31,24.31,0,0,1,2.87.89,3,3,0,0,1,1.27,1,2.79,2.79,0,0,1,.46,1.65,3.21,3.21,0,0,1-.57,1.82A3.57,3.57,0,0,1,219.34,92a6,6,0,0,1-2.41.47,5.36,5.36,0,0,1-3.38-.92A4.28,4.28,0,0,1,212.06,88.85Z" transform="translate(0 -1.5)"/><path class="cls-4" d="M231.3,92.25V90.58a4.17,4.17,0,0,1-3.62,1.93,4.55,4.55,0,0,1-1.88-.39,3,3,0,0,1-1.3-1,3.64,3.64,0,0,1-.6-1.43,9.69,9.69,0,0,1-.12-1.81V80.85h1.94v6.32a11.08,11.08,0,0,0,.12,2,2,2,0,0,0,.77,1.2,2.39,2.39,0,0,0,1.46.44,3.15,3.15,0,0,0,1.63-.45,2.48,2.48,0,0,0,1.08-1.21A6.12,6.12,0,0,0,231.1,87V80.85H233v11.4Z" transform="translate(0 -1.5)"/><path class="cls-4" d="M236,92.25V76.51H238V92.25Z" transform="translate(0 -1.5)"/><path class="cls-4" d="M245.16,90.52l.28,1.71a6.76,6.76,0,0,1-1.46.17,3.31,3.31,0,0,1-1.63-.33,1.83,1.83,0,0,1-.82-.88,6.88,6.88,0,0,1-.23-2.28V82.35h-1.42v-1.5h1.42V78l1.92-1.16v4h1.94v1.5h-1.94V89a3.28,3.28,0,0,0,.1,1.06.81.81,0,0,0,.33.38,1.32,1.32,0,0,0,.66.14A6.38,6.38,0,0,0,245.16,90.52Z" transform="translate(0 -1.5)"/><path class="cls-4" d="M247.06,78.74V76.51H249v2.23Zm0,13.51V80.85H249v11.4Z" transform="translate(0 -1.5)"/><path class="cls-4" d="M251.94,92.25V80.85h1.74v1.62a4.08,4.08,0,0,1,3.62-1.88,4.74,4.74,0,0,1,1.9.37,3,3,0,0,1,1.29,1,3.68,3.68,0,0,1,.6,1.43,10.22,10.22,0,0,1,.11,1.88v7h-1.93V85.32a5.21,5.21,0,0,0-.23-1.77,1.85,1.85,0,0,0-.8-.93,2.55,2.55,0,0,0-1.34-.35,3.15,3.15,0,0,0-2.14.78,3.88,3.88,0,0,0-.89,3v6.23Z" transform="translate(0 -1.5)"/><path class="cls-4" d="M263.81,93.2l1.88.28a1.79,1.79,0,0,0,.65,1.26,3.22,3.22,0,0,0,2,.54,3.44,3.44,0,0,0,2.07-.54,2.63,2.63,0,0,0,1-1.5,12.1,12.1,0,0,0,.14-2.48,4,4,0,0,1-3.16,1.49,4.3,4.3,0,0,1-3.64-1.69,6.53,6.53,0,0,1-1.29-4.07,7.62,7.62,0,0,1,.59-3,4.79,4.79,0,0,1,1.72-2.14,4.59,4.59,0,0,1,2.63-.75,4.1,4.1,0,0,1,3.33,1.63V80.85h1.78v9.86a9.37,9.37,0,0,1-.54,3.77,3.88,3.88,0,0,1-1.72,1.75,5.94,5.94,0,0,1-2.89.65A5.42,5.42,0,0,1,265,96,3.11,3.11,0,0,1,263.81,93.2Zm1.6-6.85a5,5,0,0,0,.89,3.27,2.94,2.94,0,0,0,4.47,0,4.77,4.77,0,0,0,.9-3.21,4.69,4.69,0,0,0-.93-3.16,2.91,2.91,0,0,0-2.24-1.06,2.78,2.78,0,0,0-2.19,1A4.65,4.65,0,0,0,265.41,86.35Z" transform="translate(0 -1.5)"/><path class="cls-4" d="M276.94,92.25v-2.2h2.2v2.2Z" transform="translate(0 -1.5)"/><path class="cls-4" d="M289.94,88.08l1.9.24a4.92,4.92,0,0,1-1.59,3.08,4.66,4.66,0,0,1-3.15,1.11A4.88,4.88,0,0,1,283.34,91a6.16,6.16,0,0,1-1.43-4.39,8.09,8.09,0,0,1,.61-3.23,4.21,4.21,0,0,1,1.87-2.07,5.43,5.43,0,0,1,2.72-.7,4.77,4.77,0,0,1,3,.94,4.35,4.35,0,0,1,1.51,2.67l-1.88.29a3.16,3.16,0,0,0-.95-1.73,2.45,2.45,0,0,0-1.65-.58,3,3,0,0,0-2.37,1,5,5,0,0,0-.91,3.31,5.14,5.14,0,0,0,.88,3.34,2.88,2.88,0,0,0,2.3,1,2.71,2.71,0,0,0,1.9-.7A3.45,3.45,0,0,0,289.94,88.08Z" transform="translate(0 -1.5)"/><path class="cls-4" d="M292.78,86.55a5.86,5.86,0,0,1,1.76-4.69,5.26,5.26,0,0,1,3.58-1.27A5.16,5.16,0,0,1,302,82.13a5.89,5.89,0,0,1,1.49,4.26,7.52,7.52,0,0,1-.66,3.46,4.6,4.6,0,0,1-1.92,2,5.55,5.55,0,0,1-2.76.7A5.12,5.12,0,0,1,294.25,91,6.13,6.13,0,0,1,292.78,86.55Zm2,0a4.83,4.83,0,0,0,1,3.28,3.19,3.19,0,0,0,4.8,0,5,5,0,0,0,1-3.34,4.73,4.73,0,0,0-1-3.21,3.18,3.18,0,0,0-4.79,0A4.8,4.8,0,0,0,294.76,86.55Z" transform="translate(0 -1.5)"/><path class="cls-4" d="M305.73,92.25V80.85h1.72v1.6a4.12,4.12,0,0,1,1.43-1.35,4,4,0,0,1,2-.51,3.75,3.75,0,0,1,2.08.53,2.8,2.8,0,0,1,1.14,1.47,4.1,4.1,0,0,1,3.52-2,3.5,3.5,0,0,1,2.61.94,4,4,0,0,1,.91,2.9v7.82h-1.92V85.07a5.52,5.52,0,0,0-.18-1.67,1.66,1.66,0,0,0-.69-.82,2.1,2.1,0,0,0-1.16-.31,2.7,2.7,0,0,0-2,.8,3.5,3.5,0,0,0-.8,2.56v6.62H312.5V84.84a3.31,3.31,0,0,0-.47-1.93,1.79,1.79,0,0,0-1.55-.64,2.73,2.73,0,0,0-1.5.43A2.38,2.38,0,0,0,308,84a7,7,0,0,0-.31,2.39v5.91Z" transform="translate(0 -1.5)"/></g></g></svg>